<?xml version="1.0" standalone="no"?>
<!DOCTYPE svg PUBLIC "-//W3C//DTD SVG 20010904//EN"
 "http://www.w3.org/TR/2001/REC-SVG-20010904/DTD/svg10.dtd">
<svg version="1.0" xmlns="http://www.w3.org/2000/svg"
 width="700.000000pt" height="700.000000pt" viewBox="0 0 700.000000 700.000000"
 preserveAspectRatio="xMidYMid meet">
<metadata>
Created by potrace 1.14, written by Peter Selinger 2001-2017
</metadata>
<g transform="translate(0.000000,700.000000) scale(0.100000,-0.100000)"
fill="#000000" stroke="none">
<path d="M1300 6519 c-25 -3 -58 -11 -74 -18 -16 -6 -117 -100 -224 -209 -107
-108 -332 -337 -501 -507 -267 -271 -372 -382 -399 -420 -43 -60 -79 -149 -90
-225 -4 -25 -7 -979 -7 -2120 l0 -2075 32 -65 c88 -178 309 -329 556 -381 186
-38 493 -9 692 66 158 59 227 105 324 214 l60 68 -13 64 c-10 52 -13 456 -13
2099 0 1119 3 2063 6 2096 5 48 4 61 -6 57 -7 -3 -13 -8 -13 -12 0 -10 -103
-116 -140 -143 -92 -69 -268 -135 -430 -164 -84 -15 -314 -22 -360 -11 -8 2
-42 9 -74 16 -158 35 -252 110 -260 209 -7 81 5 98 379 487 114 119 420 438
455 475 19 20 107 112 195 205 88 92 163 172 167 179 14 21 8 63 -12 89 -19
24 -27 26 -113 29 -51 2 -113 0 -137 -3z"/>
<path d="M3210 6519 c-36 -3 -78 -13 -94 -22 -16 -9 -131 -119 -255 -246 -124
-126 -362 -367 -529 -536 -167 -169 -314 -325 -328 -347 -46 -73 -61 -104 -80
-164 -18 -57 -19 -132 -19 -2159 l0 -2100 31 -65 c74 -157 262 -297 490 -366
79 -24 106 -27 249 -28 213 -1 303 11 476 68 167 55 257 111 358 225 63 71 63
71 49 103 -11 27 -13 393 -15 2113 -1 1144 2 2101 6 2128 9 52 1 59 -23 23
-33 -52 -136 -143 -202 -179 -66 -37 -236 -100 -299 -111 -16 -3 -41 -8 -55
-11 -118 -24 -320 -24 -428 0 -137 30 -225 83 -263 157 -40 78 -12 149 107
273 140 146 421 439 480 502 33 34 127 133 210 220 414 432 394 410 394 442 0
16 -9 39 -19 52 -16 21 -31 25 -98 29 -43 3 -107 2 -143 -1z"/>
<path d="M5119 6519 c-61 -5 -84 -12 -110 -32 -30 -22 -833 -832 -1008 -1015
-102 -108 -162 -209 -175 -297 -4 -22 -9 -56 -13 -75 -3 -19 -6 -952 -6 -2075
0 -2285 -7 -2095 74 -2210 43 -62 80 -100 139 -144 19 -14 37 -29 40 -33 14
-18 196 -100 275 -124 81 -24 106 -27 250 -28 201 -1 321 16 480 69 56 19 167
66 175 75 3 3 18 12 34 20 41 21 117 97 221 220 49 58 92 107 95 110 3 3 72
84 155 180 82 96 151 177 155 180 4 4 84 97 132 155 25 30 54 64 108 125 70
81 203 235 375 435 42 50 87 101 99 115 12 14 48 57 81 95 33 39 62 72 65 75
3 3 30 34 61 70 99 117 137 186 164 301 13 56 15 301 15 1912 l0 1848 -24 24
c-27 27 -33 28 -203 26 -93 -1 -139 -14 -178 -49 -11 -9 -62 -67 -114 -127
-52 -61 -99 -114 -105 -120 -6 -5 -34 -37 -61 -70 -28 -33 -53 -62 -56 -65 -3
-3 -43 -48 -88 -100 -46 -52 -107 -122 -136 -155 -28 -33 -67 -78 -86 -100
-31 -36 -78 -91 -104 -119 -5 -6 -39 -45 -74 -86 -36 -41 -70 -79 -75 -85 -6
-5 -40 -44 -75 -85 -219 -258 -298 -339 -373 -383 -56 -33 -196 -93 -238 -102
-8 -2 -45 -11 -81 -19 -274 -65 -600 -21 -704 96 -43 48 -55 73 -55 115 1 55
30 110 95 178 298 311 450 470 650 679 231 242 279 292 360 376 93 97 109 121
100 159 -3 16 -13 36 -22 43 -20 17 -135 25 -234 17z"/>
</g>
</svg>
